<svg width="40" height="40" viewBox="0 0 40 40" fill="none" xmlns="http://www.w3.org/2000/svg">
<path fill-rule="evenodd" clip-rule="evenodd" d="M39.9568 19.9784C39.9568 31.0122 31.0121 39.9568 19.9784 39.9568C8.94466 39.9568 0 31.0122 0 19.9784C0 8.94459 8.94466 0 19.9784 0C31.0121 0 39.9568 8.94459 39.9568 19.9784Z" fill="#47C1EE"/>
<path d="M4.03187 23.7666V17.279H5.81368V19.7461L7.78738 17.279H9.79762L7.44015 20.1847L9.96209 23.7666H7.9153L6.3071 21.3817L5.81368 21.8934V23.7666H4.03187Z" fill="#E10F29"/>
<path d="M11.4108 23.7666V17.279H13.1926V19.7461L15.1663 17.279H17.1766L14.8191 20.1847L17.3411 23.7666H15.2943L13.6861 21.3817L13.1926 21.8934V23.7666H11.4108ZM17.6008 23.7666V18.9603H19.337V23.7666H17.6008ZM17.6008 18.5583V17.0963H19.337V18.5583H17.6008ZM22.582 23.858C22.1495 23.858 21.7687 23.791 21.4398 23.657C21.1169 23.5169 20.8428 23.3341 20.6174 23.1087C20.3981 22.8772 20.2306 22.6123 20.1149 22.3138C20.0052 22.0092 19.9504 21.6924 19.9504 21.3635C19.9504 21.0345 20.0052 20.7208 20.1149 20.4223C20.2306 20.1177 20.3981 19.8527 20.6174 19.6274C20.8428 19.3959 21.1169 19.2131 21.4398 19.0791C21.7687 18.939 22.1495 18.8689 22.582 18.8689C23.0084 18.8689 23.3861 18.939 23.715 19.0791C24.044 19.2131 24.3181 19.3959 24.5374 19.6274C24.7628 19.8527 24.9303 20.1177 25.0399 20.4223C25.1557 20.7208 25.2136 21.0345 25.2136 21.3635C25.2136 21.6924 25.1557 22.0092 25.0399 22.3138C24.9303 22.6123 24.7628 22.8772 24.5374 23.1087C24.3181 23.3341 24.044 23.5169 23.715 23.657C23.3861 23.791 23.0084 23.858 22.582 23.858ZM21.7322 21.3635C21.7322 21.6863 21.8114 21.9391 21.9698 22.1219C22.1281 22.3046 22.3322 22.396 22.582 22.396C22.8317 22.396 23.0358 22.3046 23.1942 22.1219C23.3526 21.9391 23.4318 21.6863 23.4318 21.3635C23.4318 21.0406 23.3526 20.7878 23.1942 20.6051C23.0358 20.4223 22.8317 20.3309 22.582 20.3309C22.3322 20.3309 22.1281 20.4223 21.9698 20.6051C21.8114 20.7878 21.7322 21.0406 21.7322 21.3635ZM27.811 23.858C27.3906 23.858 26.9795 23.791 26.5774 23.657C26.1754 23.5169 25.8342 23.3158 25.554 23.0539L26.1479 22.0122C26.4464 22.2133 26.7327 22.3686 27.0069 22.4782C27.2871 22.5879 27.5429 22.6427 27.7744 22.6427C28.0181 22.6427 28.1399 22.5666 28.1399 22.4143C28.1399 22.329 28.0912 22.2559 27.9937 22.195C27.9023 22.1341 27.7196 22.064 27.4455 21.9848C27.1043 21.8874 26.818 21.7929 26.5865 21.7016C26.3611 21.6041 26.1754 21.5005 26.0292 21.3909C25.889 21.2812 25.7885 21.1594 25.7276 21.0254C25.6667 20.8914 25.6362 20.733 25.6362 20.5502C25.6362 20.3066 25.685 20.0812 25.7824 19.8741C25.8799 19.6669 26.0139 19.4872 26.1845 19.335C26.3611 19.1827 26.5683 19.0669 26.8058 18.9877C27.0495 18.9024 27.3145 18.8598 27.6008 18.8598C27.9541 18.8598 28.2892 18.9055 28.6059 18.9969C28.9288 19.0882 29.2516 19.274 29.5745 19.5543L28.9166 20.5959C28.6181 20.401 28.3683 20.2639 28.1673 20.1847C27.9663 20.0995 27.7775 20.0568 27.6008 20.0568C27.4972 20.0568 27.412 20.0781 27.3449 20.1208C27.2779 20.1573 27.2444 20.2182 27.2444 20.3035C27.2444 20.3949 27.2932 20.471 27.3906 20.532C27.4881 20.5868 27.68 20.6507 27.9663 20.7238C28.3135 20.8152 28.6059 20.9127 28.8435 21.0162C29.0811 21.1137 29.2699 21.2234 29.41 21.3452C29.5562 21.4609 29.6598 21.595 29.7207 21.7472C29.7816 21.8934 29.8121 22.064 29.8121 22.2589C29.8121 22.5087 29.7664 22.731 29.675 22.926C29.5836 23.1209 29.4496 23.2884 29.273 23.4285C29.1024 23.5686 28.8922 23.6753 28.6425 23.7484C28.3988 23.8215 28.1216 23.858 27.811 23.858ZM33.5765 23.7666L32.4891 22.0122L32.1419 22.396V23.7666H30.4058V17.0963H32.1419V20.7421L33.4212 18.9603H35.2487L33.5948 21.0619L35.4131 23.7666H33.5765Z" fill="white"/>
</svg>
