<svg width="31" height="43" viewBox="0 0 31 43" fill="none" xmlns="http://www.w3.org/2000/svg">
<path fill-rule="evenodd" clip-rule="evenodd" d="M30.9149 15.4454C30.8714 19.2385 29.9327 22.4298 27.8133 25.311C23.7695 30.8081 19.7892 36.3479 15.7827 41.87C15.4472 42.3324 15.447 42.3326 15.1228 41.8855C11.097 36.3379 7.08928 30.7784 3.03796 25.2475C1.09227 22.5911 0.123564 19.6548 0.0123988 16.4402C-0.119302 12.6267 0.780883 9.06824 3.17065 5.97194C5.66842 2.73617 9.07585 0.809554 13.2531 0.302739C19.1576 -0.413286 24.0402 1.45905 27.711 5.95743C29.508 8.1596 30.3873 10.7568 30.7506 13.5105C30.8491 14.2566 30.8793 15.0109 30.9149 15.4454Z" fill="#1E1D1D"/>
<path fill-rule="evenodd" clip-rule="evenodd" d="M13.1 6.96588C10.2834 6.96588 8 9.22411 8 12.0099C8 14.7955 10.2834 17.0538 13.1 17.0538V6.96588Z" fill="#96006B"/>
<path fill-rule="evenodd" clip-rule="evenodd" d="M18.2 22.2659C21.0167 22.2659 23.3 20.0076 23.3 17.2219C23.3 14.4362 21.0167 12.178 18.2 12.178V22.2659Z" fill="#E3DFCB"/>
<path fill-rule="evenodd" clip-rule="evenodd" d="M18.2 12.178C21.0167 12.178 23.3 9.84437 23.3 6.96588H18.2V12.178Z" fill="#FFA300"/>
<path fill-rule="evenodd" clip-rule="evenodd" d="M13.1 12.178H18.2V6.96588H13.1V12.178Z" fill="#FF0069"/>
<path fill-rule="evenodd" clip-rule="evenodd" d="M13.1 17.0538H8C8 19.9324 10.2834 22.2659 13.1 22.2659H18.2V17.0538H13.1Z" fill="#5AC4F1"/>
</svg>

