<svg width="31" height="44" viewBox="0 0 31 44" fill="none" xmlns="http://www.w3.org/2000/svg">
<path fill-rule="evenodd" clip-rule="evenodd" d="M30.9149 15.4795C30.8714 19.2726 29.9327 22.4639 27.8133 25.3451C23.7695 30.8423 19.7892 36.382 15.7827 41.9042C15.4472 42.3665 15.447 42.3667 15.1228 41.9196C11.097 36.372 7.08929 30.8125 3.03796 25.2816C1.09227 22.6252 0.123566 19.6889 0.0124 16.4743C-0.119301 12.6608 0.780884 9.10236 3.17065 6.00605C5.66842 2.77028 9.07585 0.843665 13.2532 0.33685C19.1576 -0.379175 24.0402 1.49316 27.711 5.99154C29.508 8.19371 30.3873 10.7909 30.7506 13.5446C30.8491 14.2908 30.8793 15.045 30.9149 15.4795Z" fill="#4A4A4A"/>
<path fill-rule="evenodd" clip-rule="evenodd" d="M13.1 7C10.2834 7 8 9.25823 8 12.044C8 14.8296 10.2834 17.0879 13.1 17.0879V7Z" fill="#9B9B9B"/>
<path fill-rule="evenodd" clip-rule="evenodd" d="M18.2 22.3C21.0167 22.3 23.3 20.0418 23.3 17.256C23.3 14.4704 21.0167 12.2121 18.2 12.2121V22.3Z" fill="#9B9B9B"/>
<path fill-rule="evenodd" clip-rule="evenodd" d="M18.2 12.2121C21.0167 12.2121 23.3 9.87849 23.3 7H18.2V12.2121Z" fill="#9B9B9B"/>
<path fill-rule="evenodd" clip-rule="evenodd" d="M13.1 12.2121H18.2V7H13.1V12.2121Z" fill="#BFBFBF"/>
<path fill-rule="evenodd" clip-rule="evenodd" d="M13.1 17.0879H8C8 19.9665 10.2834 22.3 13.1 22.3H18.2V17.0879H13.1Z" fill="#BFBFBF"/>
</svg>

